{
  "accessors": [
    {
      "bufferView": 2,
      "componentType": 5126,
      "count": 65532,
      "max": [
        -1.4732500314712524,
        -417.67401123046875,
        54.054901123046875
      ],
      "min": [
        -38.13029861450195,
        -443.62701416015625,
        25.406099319458008
      ],
      "type": "VEC3"
    },
    {
      "bufferView": 2,
      "byteOffset": 786384,
      "componentType": 5126,
      "count": 65532,
      "max": [
        0.99994295835495,
        0.9923753142356873,
        0.9999952912330627
      ],
      "min": [
        -0.9999933838844299,
        -0.999992311000824,
        -0.999916672706604
      ],
      "type": "VEC3"
    },
    {
      "bufferView": 1,
      "componentType": 5126,
      "count": 65532,
      "max": [
        0.9911680221557617,
        0.8259310126304626
      ],
      "min": [
        0.0062640998512506485,
        0.00646001985296607
      ],
      "type": "VEC2"
    },
    {
      "bufferView": 0,
      "componentType": 5125,
      "count": 333984,
      "type": "SCALAR"
    },
    {
      "bufferView": 2,
      "byteOffset": 1572768,
      "componentType": 5126,
      "count": 65532,
      "max": [
        -1.7233200073242188,
        -409.9169921875,
        54.214500427246094
      ],
      "min": [
        -37.895599365234375,
        -446.92498779296875,
        24.857500076293945
      ],
      "type": "VEC3"
    },
    {
      "bufferView": 2,
      "byteOffset": 2359152,
      "componentType": 5126,
      "count": 65532,
      "max": [
        0.9999790191650391,
        0.9854879975318909,
        0.9999812841415405
      ],
      "min": [
        -0.9999933838844299,
        -0.9997549057006836,
        -0.9999975562095642
      ],
      "type": "VEC3"
    },
    {
      "bufferView": 1,
      "byteOffset": 524256,
      "componentType": 5126,
      "count": 65532,
      "max": [
        0.9924889802932739,
        0.9646779894828796
      ],
      "min": [
        0.005517240148037672,
        0.01249490026384592
      ],
      "type": "VEC2"
    },
    {
      "bufferView": 0,
      "byteOffset": 1335936,
      "componentType": 5125,
      "count": 298887,
      "type": "SCALAR"
    },
    {
      "bufferView": 2,
      "byteOffset": 3145536,
      "componentType": 5126,
      "count": 65532,
      "max": [
        8.303890228271484,
        -404.22601318359375,
        54.962799072265625
      ],
      "min": [
        -37.57099914550781,
        -443.0639953613281,
        24.853099822998047
      ],
      "type": "VEC3"
    },
    {
      "bufferView": 2,
      "byteOffset": 3931920,
      "componentType": 5126,
      "count": 65532,
      "max": [
        0.9999769330024719,
        0.9996496438980103,
        0.9999552965164185
      ],
      "min": [
        -0.9999914765357971,
        -0.9998703598976135,
        -0.9999975562095642
      ],
      "type": "VEC3"
    },
    {
      "bufferView": 1,
      "byteOffset": 1048512,
      "componentType": 5126,
      "count": 65532,
      "max": [
        0.9935879707336426,
        0.9923440217971802
      ],
      "min": [
        0.006677580066025257,
        0.006393610034137964
      ],
      "type": "VEC2"
    },
    {
      "bufferView": 0,
      "byteOffset": 2531484,
      "componentType": 5125,
      "count": 304845,
      "type": "SCALAR"
    },
    {
      "bufferView": 2,
      "byteOffset": 4718304,
      "componentType": 5126,
      "count": 65532,
      "max": [
        6.088009834289551,
        -393.1419982910156,
        59.611698150634766
      ],
      "min": [
        -37.41339874267578,
        -444.20001220703125,
        24.806699752807617
      ],
      "type": "VEC3"
    },
    {
      "bufferView": 2,
      "byteOffset": 5504688,
      "componentType": 5126,
      "count": 65532,
      "max": [
        0.999972403049469,
        0.9995418190956116,
        0.9999955296516418
      ],
      "min": [
        -0.9999573230743408,
        -0.9998140335083008,
        -0.999995231628418
      ],
      "type": "VEC3"
    },
    {
      "bufferView": 1,
      "byteOffset": 1572768,
      "componentType": 5126,
      "count": 65532,
      "max": [
        0.9932249784469604,
        0.9902639985084534
      ],
      "min": [
        0.006220200099050999,
        0.007273240014910698
      ],
      "type": "VEC2"
    },
    {
      "bufferView": 0,
      "byteOffset": 3750864,
      "componentType": 5125,
      "count": 298911,
      "type": "SCALAR"
    },
    {
      "bufferView": 2,
      "byteOffset": 6291072,
      "componentType": 5126,
      "count": 65532,
      "max": [
        10.79740047454834,
        -390.2430114746094,
        58.05799865722656
      ],
      "min": [
        -37.318599700927734,
        -447.98699951171875,
        25.32349967956543
      ],
      "type": "VEC3"
    },
    {
      "bufferView": 2,
      "byteOffset": 7077456,
      "componentType": 5126,
      "count": 65532,
      "max": [
        0.9999932646751404,
        0.9998381733894348,
        0.9999955296516418
      ],
      "min": [
        -0.9997221231460571,
        -0.9999551177024841,
        -0.9999763369560242
      ],
      "type": "VEC3"
    },
    {
      "bufferView": 1,
      "byteOffset": 2097024,
      "componentType": 5126,
      "count": 65532,
      "max": [
        0.9928280115127563,
        0.9921299815177917
      ],
      "min": [
        0.011899399571120739,
        0.012335499748587608
      ],
      "type": "VEC2"
    },
    {
      "bufferView": 0,
      "byteOffset": 4946508,
      "componentType": 5125,
      "count": 296181,
      "type": "SCALAR"
    },
    {
      "bufferView": 2,
      "byteOffset": 7863840,
      "componentType": 5126,
      "count": 65532,
      "max": [
        12.105899810791016,
        -390.9750061035156,
        59.29209899902344
      ],
      "min": [
        -35.211700439453125,
        -448.0719909667969,
        28.19499969482422
      ],
      "type": "VEC3"
    },
    {
      "bufferView": 2,
      "byteOffset": 8650224,
      "componentType": 5126,
      "count": 65532,
      "max": [
        0.9999777674674988,
        0.9999740123748779,
        0.9999995827674866
      ],
      "min": [
        -0.9999232888221741,
        -0.9999949336051941,
        -0.9998165965080261
      ],
      "type": "VEC3"
    },
    {
      "bufferView": 1,
      "byteOffset": 2621280,
      "componentType": 5126,
      "count": 65532,
      "max": [
        0.993632972240448,
        0.993025004863739
      ],
      "min": [
        0.01177200023084879,
        0.01220650039613247
      ],
      "type": "VEC2"
    },
    {
      "bufferView": 0,
      "byteOffset": 6131232,
      "componentType": 5125,
      "count": 313779,
      "type": "SCALAR"
    },
    {
      "bufferView": 2,
      "byteOffset": 9436608,
      "componentType": 5126,
      "count": 65532,
      "max": [
        12.200200080871582,
        -389.71099853515625,
        59.7489013671875
      ],
      "min": [
        -34.32939910888672,
        -448.09100341796875,
        30.4281005859375
      ],
      "type": "VEC3"
    },
    {
      "bufferView": 2,
      "byteOffset": 10222992,
      "componentType": 5126,
      "count": 65532,
      "max": [
        0.9999940991401672,
        0.9999979734420776,
        0.999975860118866
      ],
      "min": [
        -0.9999232888221741,
        -1.0,
        -0.9785202741622925
      ],
      "type": "VEC3"
    },
    {
      "bufferView": 1,
      "byteOffset": 3145536,
      "componentType": 5126,
      "count": 65532,
      "max": [
        0.99310302734375,
        0.9658700227737427
      ],
      "min": [
        0.007548240013420582,
        0.012329399585723877
      ],
      "type": "VEC2"
    },
    {
      "bufferView": 0,
      "byteOffset": 7386348,
      "componentType": 5125,
      "count": 332811,
      "type": "SCALAR"
    },
    {
      "bufferView": 2,
      "byteOffset": 11009376,
      "componentType": 5126,
      "count": 65532,
      "max": [
        11.822999954223633,
        -392.45599365234375,
        59.611698150634766
      ],
      "min": [
        -36.298301696777344,
        -447.5429992675781,
        27.03529930114746
      ],
      "type": "VEC3"
    },
    {
      "bufferView": 2,
      "byteOffset": 11795760,
      "componentType": 5126,
      "count": 65532,
      "max": [
        0.9999932646751404,
        0.9999984502792358,
        0.9999744892120361
      ],
      "min": [
        -0.9998555183410645,
        -0.999992311000824,
        -0.9996654391288757
      ],
      "type": "VEC3"
    },
    {
      "bufferView": 1,
      "byteOffset": 3669792,
      "componentType": 5126,
      "count": 65532,
      "max": [
        0.9884589910507202,
        0.9935879707336426
      ],
      "min": [
        0.015587099827826023,
        0.006768490187823772
      ],
      "type": "VEC2"
    },
    {
      "bufferView": 0,
      "byteOffset": 8717592,
      "componentType": 5125,
      "count": 294450,
      "type": "SCALAR"
    },
    {
      "bufferView": 2,
      "byteOffset": 12582144,
      "componentType": 5126,
      "count": 44859,
      "max": [
        8.919159889221191,
        -408.2489929199219,
        56.14860153198242
      ],
      "min": [
        -37.15610122680664,
        -441.447998046875,
        25.63759994506836
      ],
      "type": "VEC3"
    },
    {
      "bufferView": 2,
      "byteOffset": 13120452,
      "componentType": 5126,
      "count": 44859,
      "max": [
        0.999944269657135,
        0.9995607137680054,
        0.9999493956565857
      ],
      "min": [
        -0.9999727606773376,
        -0.9999824166297913,
        -0.9998615384101868
      ],
      "type": "VEC3"
    },
    {
      "bufferView": 1,
      "byteOffset": 4194048,
      "componentType": 5126,
      "count": 44859,
      "max": [
        0.9934430122375488,
        0.9913049936294556
      ],
      "min": [
        0.011681799776852131,
        0.007336529903113842
      ],
      "type": "VEC2"
    },
    {
      "bufferView": 0,
      "byteOffset": 9895392,
      "componentType": 5125,
      "count": 183666,
      "type": "SCALAR"
    }
  ],
  "asset": {
    "extras": {
      "author": "3Dfoodscan collection (https://sketchfab.com/3dfoodcollection-u)",
      "license": "CC-BY-4.0 (http://creativecommons.org/licenses/by/4.0/)",
      "source": "https://sketchfab.com/3d-models/sushisalmon-3bfe6dee7eeb4ed5bbfaf2baf1672ee3",
      "title": "Sushi(Salmon)"
    },
    "generator": "Sketchfab-12.66.0",
    "version": "2.0"
  },
  "bufferViews": [
    {
      "buffer": 0,
      "byteLength": 10630056,
      "name": "floatBufferViews",
      "target": 34963
    },
    {
      "buffer": 0,
      "byteLength": 4552920,
      "byteOffset": 10630056,
      "byteStride": 8,
      "name": "floatBufferViews",
      "target": 34962
    },
    {
      "buffer": 0,
      "byteLength": 13658760,
      "byteOffset": 15182976,
      "byteStride": 12,
      "name": "floatBufferViews",
      "target": 34962
    }
  ],
  "buffers": [
    {
      "byteLength": 28841736,
      "uri": "scene.bin"
    }
  ],
  "extensionsUsed": [
    "KHR_materials_clearcoat"
  ],
  "images": [
    {
      "uri": "textures/texture_baseColor.jpeg"
    }
  ],
  "materials": [
    {
      "doubleSided": true,
      "extensions": {
        "KHR_materials_clearcoat": {
          "clearcoatFactor": 0.39666113242315415,
          "clearcoatRoughnessFactor": 0.04
        }
      },
      "name": "texture",
      "pbrMetallicRoughness": {
        "baseColorTexture": {
          "index": 0
        },
        "metallicFactor": 0.0,
        "roughnessFactor": 0.5424701492285794
      }
    }
  ],
  "meshes": [
    {
      "name": "Object_0",
      "primitives": [
        {
          "attributes": {
            "NORMAL": 1,
            "POSITION": 0,
            "TEXCOORD_0": 2
          },
          "indices": 3,
          "material": 0,
          "mode": 4
        }
      ]
    },
    {
      "name": "Object_1",
      "primitives": [
        {
          "attributes": {
            "NORMAL": 5,
            "POSITION": 4,
            "TEXCOORD_0": 6
          },
          "indices": 7,
          "material": 0,
          "mode": 4
        }
      ]
    },
    {
      "name": "Object_2",
      "primitives": [
        {
          "attributes": {
            "NORMAL": 9,
            "POSITION": 8,
            "TEXCOORD_0": 10
          },
          "indices": 11,
          "material": 0,
          "mode": 4
        }
      ]
    },
    {
      "name": "Object_3",
      "primitives": [
        {
          "attributes": {
            "NORMAL": 13,
            "POSITION": 12,
            "TEXCOORD_0": 14
          },
          "indices": 15,
          "material": 0,
          "mode": 4
        }
      ]
    },
    {
      "name": "Object_4",
      "primitives": [
        {
          "attributes": {
            "NORMAL": 17,
            "POSITION": 16,
            "TEXCOORD_0": 18
          },
          "indices": 19,
          "material": 0,
          "mode": 4
        }
      ]
    },
    {
      "name": "Object_5",
      "primitives": [
        {
          "attributes": {
            "NORMAL": 21,
            "POSITION": 20,
            "TEXCOORD_0": 22
          },
          "indices": 23,
          "material": 0,
          "mode": 4
        }
      ]
    },
    {
      "name": "Object_6",
      "primitives": [
        {
          "attributes": {
            "NORMAL": 25,
            "POSITION": 24,
            "TEXCOORD_0": 26
          },
          "indices": 27,
          "material": 0,
          "mode": 4
        }
      ]
    },
    {
      "name": "Object_7",
      "primitives": [
        {
          "attributes": {
            "NORMAL": 29,
            "POSITION": 28,
            "TEXCOORD_0": 30
          },
          "indices": 31,
          "material": 0,
          "mode": 4
        }
      ]
    },
    {
      "name": "Object_8",
      "primitives": [
        {
          "attributes": {
            "NORMAL": 33,
            "POSITION": 32,
            "TEXCOORD_0": 34
          },
          "indices": 35,
          "material": 0,
          "mode": 4
        }
      ]
    }
  ],
  "nodes": [
    {
      "children": [
        1
      ],
      "matrix": [
        1.0,
        -1.608122622957728e-16,
        -5.053215392444312e-16,
        0.0,
        5.053215392444312e-16,
        -5.053215392444312e-16,
        1.0,
        0.0,
        -1.6081226229577292e-16,
        -1.0,
        -5.053215392444312e-16,
        0.0,
        2.184918912462308e-13,
        84.55547332763653,
        837.802001953125,
        1.0
      ],
      "name": "Sketchfab_model"
    },
    {
      "children": [
        2,
        3,
        4,
        5,
        6,
        7,
        8,
        9,
        10
      ],
      "name": "samon14BD.obj.cleaner.materialmerger.gles"
    },
    {
      "mesh": 0,
      "name": "Object_2"
    },
    {
      "mesh": 1,
      "name": "Object_3"
    },
    {
      "mesh": 2,
      "name": "Object_4"
    },
    {
      "mesh": 3,
      "name": "Object_5"
    },
    {
      "mesh": 4,
      "name": "Object_6"
    },
    {
      "mesh": 5,
      "name": "Object_7"
    },
    {
      "mesh": 6,
      "name": "Object_8"
    },
    {
      "mesh": 7,
      "name": "Object_9"
    },
    {
      "mesh": 8,
      "name": "Object_10"
    }
  ],
  "samplers": [
    {
      "magFilter": 9729,
      "minFilter": 9987,
      "wrapS": 10497,
      "wrapT": 10497
    }
  ],
  "scene": 0,
  "scenes": [
    {
      "name": "Sketchfab_Scene",
      "nodes": [
        0
      ]
    }
  ],
  "textures": [
    {
      "sampler": 0,
      "source": 0
    }
  ]
}
